<?xml version="1.0" standalone="no"?>
<!DOCTYPE svg PUBLIC "-//W3C//DTD SVG 20010904//EN"
 "http://www.w3.org/TR/2001/REC-SVG-20010904/DTD/svg10.dtd">
<svg version="1.0" xmlns="http://www.w3.org/2000/svg"
 width="512.000000pt" height="512.000000pt" viewBox="0 0 512.000000 512.000000"
 preserveAspectRatio="xMidYMid meet">
<metadata>
Created by potrace 1.11, written by Peter Selinger 2001-2013
</metadata>
<g transform="translate(0.000000,512.000000) scale(0.100000,-0.100000)"
fill="#000000" stroke="none">
<path d="M0 2560 l0 -2560 665 0 665 0 1 43 c0 23 2 79 3 125 l1 83 48 40 c26
22 47 46 47 53 0 24 35 55 51 46 8 -5 22 -7 32 -4 13 4 21 -3 31 -28 14 -31
13 -35 -10 -59 -21 -22 -23 -28 -10 -38 9 -8 16 -8 20 -2 4 6 21 20 39 33 18
12 26 15 20 7 -7 -9 -9 -20 -5 -24 4 -5 -1 -5 -10 -2 -11 4 -18 2 -18 -5 0 -6
-14 -23 -32 -38 -25 -21 -32 -36 -37 -76 -7 -57 -3 -97 9 -89 4 3 11 -11 14
-30 7 -34 8 -35 51 -35 33 0 45 4 45 15 0 7 8 19 18 25 13 8 11 9 -13 4 l-30
-7 20 24 c11 13 25 27 30 31 15 11 47 9 40 -2 -3 -5 -16 -10 -28 -10 -15 0
-18 -3 -10 -11 7 -7 21 -6 47 5 20 8 36 11 36 5 0 -5 -4 -9 -9 -9 -11 0 -61
-50 -61 -61 0 -14 27 -10 44 6 19 19 36 19 36 0 0 -13 194 -15 1690 -15 l1690
0 0 2560 0 2560 -715 0 -716 0 35 -35 c19 -18 38 -44 42 -57 4 -13 14 -30 23
-38 10 -8 29 -41 44 -73 28 -59 29 -103 6 -149 -6 -10 -5 -18 3 -20 8 -3 8
-12 0 -38 -10 -27 -9 -36 2 -49 8 -9 18 -36 22 -59 4 -23 10 -42 15 -42 5 0 8
-24 8 -52 -1 -44 -3 -48 -9 -23 -6 26 -8 28 -15 11 -5 -11 -4 -31 2 -47 14
-37 3 -37 -59 -1 -130 75 -177 107 -167 113 7 4 8 12 5 18 -11 16 -14 111 -5
148 5 26 3 33 -11 38 -24 7 -30 46 -30 180 0 121 -4 145 -26 145 -8 0 -11 6
-8 15 5 13 -12 15 -118 15 l-125 0 -15 -105 c-8 -61 -11 -111 -6 -120 11 -19
-55 -91 -72 -80 -7 4 -32 9 -56 10 l-45 3 25 -19 c13 -10 30 -19 37 -19 7 0
10 -3 7 -6 -3 -3 -41 7 -84 22 -77 26 -82 27 -174 15 -121 -14 -264 -14 -305
1 -39 14 -151 -7 -175 -33 -70 -76 -90 -105 -90 -133 0 -29 -60 -114 -88 -125
-37 -15 -92 -11 -101 9 -12 22 -3 39 41 88 22 24 38 50 36 60 -8 44 -111 24
-156 -30 -107 -132 -283 -288 -381 -337 -23 -12 -47 -30 -53 -41 -15 -23 -28
-26 -28 -6 0 7 -9 25 -20 39 -11 14 -20 32 -20 40 0 8 -12 23 -26 33 -15 10
-46 38 -70 62 -24 23 -47 41 -52 40 -7 -3 -18 6 -89 71 -41 37 -115 71 -133
61 -9 -5 -42 -5 -74 -1 -31 4 -101 7 -154 6 -100 -3 -113 0 -436 80 -150 38
-196 73 -221 170 -15 56 -15 61 6 114 12 31 30 67 39 81 9 14 20 31 24 38 6 9
-38 12 -203 12 l-211 0 0 -2560z m4106 1932 l-2 -147 -47 2 c-27 2 -61 10 -78
18 -27 15 -29 18 -22 58 3 23 10 53 14 67 6 20 7 17 8 -19 1 -55 13 -46 22 17
l6 47 2 -42 c1 -59 21 -54 22 5 2 46 2 46 9 12 7 -34 7 -33 10 15 1 28 2 53 1
58 0 4 4 7 9 7 6 0 10 15 10 33 0 24 3 28 10 17 8 -12 10 -12 10 5 0 15 3 16
9 7 4 -7 7 -79 7 -160z m-2016 58 c0 -5 -4 -10 -10 -10 -5 0 -10 5 -10 10 0 6
5 10 10 10 6 0 10 -4 10 -10z m-1487 -48 c26 -22 101 -25 160 -8 94 27 111 23
179 -41 68 -65 127 -148 147 -211 11 -32 18 -41 31 -37 22 7 34 -43 16 -65 -7
-8 -17 -26 -23 -40 -19 -44 -84 -110 -132 -134 -57 -29 -69 -43 -115 -131 -20
-38 -50 -84 -66 -102 -25 -26 -30 -40 -30 -80 0 -83 -40 -197 -87 -248 -48
-53 -220 -332 -210 -341 3 -3 14 -1 25 5 40 21 33 10 -40 -63 -80 -80 -127
-161 -177 -306 -18 -51 -27 -180 -13 -180 13 0 19 22 25 100 5 51 20 93 80
218 42 89 83 36 113 -151 17 -102 20 -112 64 -170 46 -60 121 -134 173 -170
17 -11 28 -30 32 -55 10 -60 53 -186 94 -275 68 -147 115 -208 279 -359 35
-32 66 -58 70 -58 4 0 8 -9 8 -20 0 -11 -3 -20 -7 -20 -4 0 -10 -12 -13 -28
-10 -46 -23 -712 -16 -792 4 -41 7 -69 8 -61 1 8 9 22 18 32 28 31 56 247 51
389 -7 168 11 392 32 413 7 7 7 16 0 29 -10 19 4 27 16 8 3 -5 32 -17 63 -26
31 -8 100 -29 152 -45 53 -16 114 -29 135 -29 54 -1 66 -12 113 -105 34 -69
53 -91 131 -160 50 -43 91 -85 91 -93 0 -8 -35 -46 -77 -85 -42 -40 -102 -95
-133 -124 -30 -28 -86 -66 -125 -85 -38 -18 -72 -36 -75 -40 -3 -3 -23 -10
-45 -14 l-40 -8 30 -7 c23 -6 19 -7 -20 -6 -34 1 -49 6 -48 15 3 11 -12 16
-44 15 -16 -1 -17 31 -1 57 10 15 10 22 1 31 -15 15 -58 -29 -68 -69 -3 -15
-18 -44 -32 -65 -42 -61 -139 -108 -158 -77 -4 7 -12 7 -25 0 -25 -13 -113 18
-105 39 4 10 2 11 -7 3 -7 -5 -33 -12 -58 -15 -25 -3 -79 -11 -120 -18 -81
-13 -197 -6 -224 14 -9 7 -25 47 -36 90 -11 43 -27 91 -36 107 -16 26 -16 31
-1 68 15 38 15 41 -3 57 -50 46 -89 196 -70 275 10 42 9 56 -14 123 -14 41
-32 118 -40 170 -9 52 -21 108 -27 123 -21 53 -23 260 -4 355 13 69 14 94 5
128 -16 62 -3 175 27 236 l25 50 -34 -32 c-22 -22 -47 -66 -73 -130 -61 -148
-139 -211 -182 -146 -24 36 -3 212 30 251 8 10 12 69 13 176 1 88 8 238 15
331 7 94 12 216 10 272 -2 78 1 110 13 135 12 23 16 61 16 147 0 146 5 230 20
306 13 71 28 311 29 478 1 65 6 139 13 164 12 51 71 118 110 126 40 9 176 1
191 -11z m2234 -212 c-10 -14 -13 -37 -11 -66 4 -35 1 -44 -11 -44 -25 0 -76
30 -70 40 3 6 -1 7 -9 4 -9 -3 -16 -2 -16 4 0 5 9 12 20 15 11 3 20 0 20 -6 0
-6 8 0 17 13 20 28 66 70 72 65 1 -2 -4 -13 -12 -25z m-1098 -32 c-9 -18 -9
-20 4 -15 15 5 27 -11 27 -36 0 -8 -4 -7 -12 1 -9 9 -15 5 -25 -19 -9 -21 -18
-29 -28 -25 -9 3 -15 0 -15 -9 0 -8 5 -15 10 -15 19 0 10 -22 -25 -63 -19 -22
-32 -43 -29 -46 4 -3 9 0 11 7 3 6 9 12 14 12 5 0 38 20 74 44 84 58 144 69
180 34 22 -22 23 -28 14 -64 -6 -21 -16 -45 -21 -52 -12 -14 -62 -38 -99 -46
-38 -8 -91 -47 -117 -86 -13 -19 -32 -38 -42 -42 -13 -5 -20 -21 -25 -55 -6
-42 -26 -127 -42 -173 -4 -10 -9 -5 -15 15 -14 47 10 313 38 409 8 27 14 62
14 78 0 41 87 164 118 168 1 0 -2 -10 -9 -22z m1516 -38 c3 -5 15 -10 26 -10
11 0 29 -9 41 -20 12 -11 18 -20 14 -20 -5 0 -3 -7 4 -15 7 -9 13 -34 12 -55
-2 -46 6 -49 38 -15 24 26 82 50 115 47 28 -2 75 20 75 36 0 7 -5 10 -12 6 -7
-4 -8 -3 -4 4 9 15 53 16 61 2 4 -6 15 -8 26 -5 13 4 19 2 19 -9 0 -10 9 -16
23 -16 18 0 19 -2 7 -10 -12 -8 -12 -10 -1 -10 7 0 28 -16 47 -36 21 -24 38
-34 48 -31 20 8 20 3 0 -17 -14 -15 -14 -16 0 -16 25 0 19 -45 -8 -75 -20 -21
-28 -25 -43 -16 -14 8 -15 10 -3 11 34 1 -16 20 -54 20 -36 0 -38 2 -32 25 8
32 -26 99 -42 83 -8 -8 -13 -6 -19 8 -8 23 -28 44 -40 44 -21 0 10 -215 39
-272 5 -10 16 -18 25 -18 12 0 14 7 10 33 -3 20 0 40 9 52 11 15 11 21 1 28
-8 6 -6 7 6 3 10 -3 23 -6 28 -6 16 0 10 -77 -6 -84 -8 -3 -15 -15 -15 -26 0
-29 41 -23 55 8 5 12 13 22 17 22 5 0 8 7 8 15 0 9 9 15 23 15 25 -1 60 -24
50 -33 -3 -4 -1 -7 6 -7 18 0 9 -69 -15 -105 -15 -23 -19 -47 -19 -120 0 -49
5 -112 12 -140 11 -42 11 -52 -1 -64 -13 -12 -21 -9 -63 21 -26 19 -81 54
-120 78 -40 23 -73 45 -73 47 0 3 12 2 27 -2 24 -6 25 -5 12 12 -8 10 -20 24
-26 31 -7 7 -18 21 -25 30 -20 27 -87 76 -153 112 -33 18 -82 50 -110 70 -35
26 -75 44 -133 59 -83 21 -162 63 -162 86 0 7 24 30 53 51 50 38 52 41 55 92
2 40 -1 54 -12 58 -21 8 -10 23 28 40 36 15 162 19 171 4z m-1646 -32 c-2 -2
-22 -19 -44 -38 l-40 -35 39 42 c22 24 42 40 45 38 2 -3 2 -6 0 -7z m570 -62
c12 -11 21 -22 21 -25 0 -4 -24 -32 -53 -62 -39 -42 -57 -71 -70 -115 -10 -32
-27 -70 -37 -84 -19 -24 -20 -24 -20 -4 0 12 7 34 15 50 21 41 9 43 -27 5 -53
-56 -94 -62 -118 -15 -13 23 -11 27 16 55 34 33 110 57 127 40 7 -7 15 -7 24
0 25 21 14 38 -31 44 -39 6 -44 10 -41 31 3 26 31 75 52 87 7 5 11 11 9 15
-10 17 113 -4 133 -22z m-599 -19 c0 -2 -9 -12 -20 -22 -24 -21 -27 -14 -4 9
15 15 24 20 24 13z m646 -124 c-3 -4 -6 -1 -6 6 0 7 -4 9 -10 6 -11 -7 -14 8
-3 19 4 3 11 -1 16 -9 5 -9 6 -19 3 -22z m-16 -67 c0 -2 -8 -10 -17 -17 -16
-13 -17 -12 -4 4 13 16 21 21 21 13z m-360 -90 c0 -12 9 -38 20 -59 11 -20 20
-54 19 -74 0 -36 -1 -37 -11 -13 -6 14 -10 35 -9 48 1 12 -2 22 -6 22 -10 0
-9 -28 1 -101 l6 -44 -19 50 c-10 28 -14 51 -10 53 4 2 4 15 -2 29 -5 13 -6
29 -3 34 3 6 3 17 0 26 -5 12 -15 6 -48 -26 -64 -61 -83 -55 -102 36 -7 32 -7
32 27 26 30 -4 40 0 68 27 l34 32 17 -22 c10 -12 18 -32 18 -44z m2436 10 c10
-8 16 -17 13 -20 -3 -4 -17 2 -30 13 -27 23 -13 28 17 7z m-2589 -152 c-9 -9
-28 6 -21 18 4 6 10 6 17 -1 6 -6 8 -13 4 -17z m43 -24 c0 -5 -2 -10 -4 -10
-3 0 -8 5 -11 10 -3 6 -1 10 4 10 6 0 11 -4 11 -10z m-170 -34 c0 -2 -7 -7
-16 -10 -8 -3 -12 -2 -9 4 6 10 25 14 25 6z m89 -42 c-7 -9 -12 -30 -11 -47 1
-27 0 -29 -9 -14 -11 18 -4 52 14 75 5 7 12 10 15 7 3 -2 -1 -12 -9 -21z m41
-28 c0 -3 -4 -8 -10 -11 -5 -3 -10 -1 -10 4 0 6 5 11 10 11 6 0 10 -2 10 -4z
m77 -68 c-2 -13 -4 -3 -4 22 0 25 2 35 4 23 2 -13 2 -33 0 -45z m88 2 c-4 -12
-9 -19 -12 -17 -3 3 -2 15 2 27 4 12 9 19 12 17 3 -3 2 -15 -2 -27z m-212 -36
c-24 -18 -43 -18 -43 1 0 8 6 12 14 9 8 -3 17 0 21 5 3 6 11 9 16 5 6 -3 3
-12 -8 -20z m64 20 c-3 -3 -12 -4 -19 -1 -8 3 -5 6 6 6 11 1 17 -2 13 -5z m83
-34 c0 -6 10 -15 23 -20 12 -5 17 -9 10 -9 -7 -1 -25 -29 -42 -63 -16 -35 -49
-81 -73 -104 -24 -22 -62 -59 -86 -82 -24 -22 -49 -39 -55 -36 -21 9 -57 74
-57 102 0 15 12 41 26 57 15 17 38 48 53 70 32 49 41 56 111 77 65 20 90 22
90 8z m214 -42 c28 -15 37 -29 30 -50 -3 -10 -1 -18 5 -18 14 0 9 -43 -8 -60
-12 -13 -22 -6 -80 56 -36 40 -75 77 -86 83 -16 10 -7 11 49 6 38 -3 78 -11
90 -17z m1581 2 c-18 -5 -23 -8 -11 -9 11 0 16 -4 13 -8 -4 -3 -17 -1 -30 5
-12 6 -29 13 -37 15 -8 3 10 5 40 5 45 0 50 -2 25 -8z m1406 -485 c5 -11 13
-42 18 -70 6 -27 17 -68 26 -90 8 -22 13 -30 11 -17 -2 12 0 20 5 16 19 -11 9
-139 -16 -215 -33 -95 -44 -173 -47 -336 -1 -73 -5 -133 -9 -133 -4 0 -9 -12
-11 -27 -2 -16 -8 -27 -15 -26 -9 2 -13 -15 -13 -62 0 -37 4 -65 10 -65 6 0
10 -38 9 -97 -1 -64 -4 -88 -9 -68 -4 17 -5 -49 -4 -145 5 -222 4 -210 13
-210 4 0 11 -41 15 -92 3 -50 10 -94 15 -98 12 -7 15 -134 6 -221 -6 -49 -3
-80 9 -123 10 -33 14 -70 11 -87 -4 -18 -1 -41 9 -61 15 -31 -29 12 -192 186
l-37 39 38 -21 c20 -12 37 -17 37 -12 0 5 -4 12 -10 15 -11 7 -14 65 -4 65 4
0 13 -8 20 -18 13 -16 13 -16 13 3 -1 11 -4 31 -8 45 -5 17 -1 35 11 55 22 38
24 121 2 190 -8 28 -21 81 -29 120 -13 64 -12 71 6 96 25 35 24 39 -6 39 -14
0 -25 -4 -25 -10 0 -5 -4 -10 -9 -10 -5 0 -7 9 -4 20 3 11 13 20 23 20 29 0
41 25 43 90 1 55 -2 65 -23 82 -18 15 -21 21 -11 28 10 5 11 13 3 26 -8 15
-11 10 -18 -31 -4 -28 -9 -43 -12 -35 -7 20 -28 40 -43 40 -8 0 -10 13 -6 40
5 38 -5 54 -17 28 -3 -7 -4 12 -2 42 3 38 2 47 -4 30 -4 -14 -8 -21 -9 -17 -2
14 -41 -13 -41 -28 0 -24 -18 -17 -23 8 -2 12 -5 -7 -6 -43 -2 -55 -4 -61 -12
-40 l-10 25 -14 -25 -13 -25 -7 28 c-12 47 -1 263 14 281 8 9 11 19 8 23 -4 3
3 21 14 40 11 18 18 33 14 33 -3 0 0 10 7 23 7 12 16 56 20 97 11 115 19 154
29 139 5 -9 9 10 9 49 0 35 4 61 8 58 11 -7 28 59 47 189 10 61 21 114 26 120
5 5 9 17 9 27 0 10 4 18 8 18 9 0 32 80 32 110 0 11 5 20 10 20 6 0 15 11 22
25 6 13 14 22 19 20 4 -3 11 0 14 6 6 9 24 -21 56 -96z m-3111 38 c0 -15 2
-16 10 -3 7 11 10 12 10 2 0 -18 -38 -72 -51 -72 -5 0 -7 11 -5 25 7 38 -1 30
-29 -27 -18 -38 -24 -45 -20 -23 11 55 45 115 66 115 11 0 19 -7 19 -17z
m-141 -55 c1 -9 -4 -29 -10 -45 -9 -25 -11 -26 -20 -10 -7 11 -7 23 -1 30 14
19 22 47 13 47 -8 0 -16 -17 -31 -70 -7 -23 -8 -23 -9 8 -1 20 8 45 21 63 20
26 23 28 30 12 3 -10 7 -26 7 -35z m-137 -49 c21 -40 38 -75 38 -77 0 -13 -60
70 -61 84 0 12 -3 14 -6 6 -6 -15 -33 30 -33 55 0 31 25 4 62 -68z m-115 9
c-3 -8 -6 -5 -6 6 -1 11 2 17 5 13 3 -3 4 -12 1 -19z m35 10 c6 -17 -1 -38
-13 -38 -5 0 -9 11 -9 25 0 26 14 34 22 13z m28 -28 c0 -5 -4 -10 -10 -10 -5
0 -10 5 -10 10 0 6 5 10 10 10 6 0 10 -4 10 -10z m685 -900 c-3 -5 -2 -10 4
-10 5 0 10 -26 10 -57 0 -43 4 -60 17 -70 30 -22 25 -41 -14 -54 -64 -21 -77
-33 -196 -180 -11 -13 -8 -18 16 -32 15 -9 28 -12 28 -7 0 4 -6 10 -12 13 -8
3 13 29 51 63 69 64 101 84 58 38 -15 -16 -27 -33 -27 -39 0 -5 7 -2 15 9 15
20 65 49 72 42 3 -3 -4 -11 -16 -18 -12 -7 -21 -22 -21 -33 0 -11 -11 -37 -25
-56 -13 -20 -21 -39 -18 -43 4 -3 0 -17 -7 -31 -18 -33 -9 -39 34 -25 38 12
132 18 142 8 3 -4 -5 -12 -18 -18 -12 -7 -36 -27 -53 -45 -18 -21 -43 -36 -65
-40 -26 -5 -31 -3 -20 4 9 6 10 11 3 11 -6 0 -20 15 -31 33 -12 17 -46 57 -76
87 -35 35 -61 71 -71 98 -13 41 -13 43 2 37 10 -3 14 -3 10 1 -3 4 2 15 13 24
14 12 22 36 27 81 4 46 16 79 39 119 45 76 61 96 70 87 4 -4 2 -13 -4 -19 -7
-7 -12 -16 -12 -20 0 -5 13 5 30 22 27 28 59 42 45 20z m104 -108 c0 -15 -3
-21 -6 -14 -4 10 -8 9 -19 -5 -16 -21 -18 -5 -4 32 12 32 30 24 29 -13z m-72
-148 c-3 -3 -12 -4 -19 -1 -8 3 -5 6 6 6 11 1 17 -2 13 -5z m-260 -36 c-3 -7
-5 -2 -5 12 0 14 2 19 5 13 2 -7 2 -19 0 -25z m87 -224 c49 -41 50 -60 6 -86
-15 -9 -36 -32 -45 -52 -17 -34 -41 -52 -29 -21 4 8 2 15 -4 15 -6 0 -12 -6
-15 -12 -6 -18 -23 -1 -41 44 -14 33 -14 37 -1 32 17 -7 21 21 5 31 -14 9 -13
71 2 94 11 18 15 18 45 6 18 -8 53 -30 77 -51z m-274 -17 c0 28 37 20 45 -11
11 -37 49 -131 58 -144 7 -9 6 -11 -5 -7 -17 7 -99 99 -116 132 -7 12 -12 30
-12 40 1 14 4 13 15 -7 14 -24 14 -24 15 -3z m127 -39 c-3 -8 -6 -5 -6 6 -1
11 2 17 5 13 3 -3 4 -12 1 -19z m2725 -6 c24 -40 36 -203 17 -218 -14 -11 -90
-39 -99 -37 -3 1 -14 4 -25 8 -20 7 -20 6 -1 -9 11 -9 16 -16 10 -16 -14 1
-40 23 -47 43 -3 9 -12 17 -19 17 -9 0 -8 -3 2 -10 13 -9 13 -10 0 -10 -8 0
-28 11 -45 25 -26 21 -27 24 -10 25 17 0 17 2 5 10 -12 8 -6 18 33 56 28 29
47 56 47 70 0 29 54 74 89 74 19 0 32 -8 43 -28z m-2652 -132 c0 -5 -5 -10
-11 -10 -5 0 -7 5 -4 10 3 6 8 10 11 10 2 0 4 -4 4 -10z m2805 -123 l20 -42 6
45 c6 44 6 44 7 8 3 -56 -5 -69 -34 -56 -13 6 -26 19 -29 29 -4 11 -13 26 -22
35 -13 13 -14 17 -3 24 21 13 33 3 55 -43z m-60 -157 c12 -19 -12 -10 -31 11
-19 22 -19 22 3 10 12 -6 25 -16 28 -21z m72 -2 c-3 -8 -6 -5 -6 6 -1 11 2 17
5 13 3 -3 4 -12 1 -19z m-2827 -219 c0 -5 -4 -9 -10 -9 -5 0 -10 7 -10 16 0 8
5 12 10 9 6 -3 10 -10 10 -16z m-125 -23 c-8 -13 -13 -30 -9 -39 4 -12 1 -14
-15 -10 -26 7 -26 7 1 43 26 35 45 41 23 6z m81 -3 c7 -10 14 -21 14 -24 0 -8
-47 -29 -66 -29 -27 0 -29 31 -3 51 30 23 38 23 55 2z m51 -26 c-2 -7 -1 -19
4 -28 6 -11 1 -23 -16 -39 -13 -13 -21 -29 -18 -37 5 -12 1 -14 -16 -8 -21 6
-22 5 -12 -14 14 -26 7 -27 -17 -3 -23 23 -14 54 23 78 14 9 25 22 24 28 -3
19 12 46 23 40 5 -3 7 -11 5 -17z m-420 -23 c-3 -3 -12 -4 -19 -1 -8 3 -5 6 6
6 11 1 17 -2 13 -5z m-39 -16 c-3 -14 23 -16 62 -4 18 5 21 5 10 -3 -12 -8
-11 -13 5 -32 20 -22 20 -22 0 -15 -134 51 -131 49 -105 57 14 4 26 7 28 8 1
1 1 -5 0 -11z m895 -44 c-10 -7 -24 -14 -31 -14 -8 0 -27 -14 -44 -32 l-29
-31 7 29 c6 25 5 27 -7 13 -8 -9 -22 -19 -32 -22 -16 -6 -16 -5 -1 18 13 20
14 25 3 25 -21 1 50 30 72 30 11 0 19 6 19 14 0 8 10 16 23 18 30 4 44 -29 20
-48z m-655 3 c6 0 12 -4 12 -8 0 -5 19 -18 43 -30 70 -35 73 -40 37 -59 -40
-21 -79 -14 -90 14 -7 17 -9 18 -9 4 -1 -10 -6 -18 -12 -18 -6 0 -8 8 -4 19 3
10 -1 24 -10 31 -8 7 -15 16 -15 21 0 16 29 10 40 -8 10 -16 10 -16 8 2 -2 12
-12 21 -26 23 -12 2 -22 8 -22 14 0 6 7 7 18 3 9 -4 23 -8 30 -8z m-123 -27
c3 -5 1 -10 -4 -10 -6 0 -11 5 -11 10 0 6 2 10 4 10 3 0 8 -4 11 -10z m70 -30
c3 -5 2 -10 -4 -10 -5 0 -13 5 -16 10 -3 6 -2 10 4 10 5 0 13 -4 16 -10z
m-183 -322 c-34 -33 -62 -55 -62 -48 0 16 111 122 119 114 3 -3 -22 -32 -57
-66z m-312 -28 c-20 -13 -43 -13 -35 0 3 6 16 10 28 10 18 0 19 -2 7 -10z
m765 1 c-6 -5 -26 -18 -45 -28 -35 -20 -42 -34 -19 -42 6 -2 9 1 5 7 -4 6 6
18 23 27 43 22 53 18 11 -5 -42 -23 -24 -26 28 -5 37 15 37 15 13 -4 -32 -25
-111 -43 -104 -24 3 7 2 13 -1 13 -4 0 -11 -11 -16 -25 -5 -14 -14 -25 -20
-25 -14 0 12 50 40 75 31 28 112 63 85 36z m-835 -20 c0 -5 -12 -16 -26 -26
-26 -17 -26 -10 -1 23 11 14 27 16 27 3z m580 -141 c0 -5 -2 -10 -4 -10 -3 0
-8 5 -11 10 -3 6 -1 10 4 10 6 0 11 -4 11 -10z"/>
<path d="M4008 4423 c7 -3 16 -2 19 1 4 3 -2 6 -13 5 -11 0 -14 -3 -6 -6z"/>
<path d="M1092 1425 c0 -16 2 -22 5 -12 2 9 2 23 0 30 -3 6 -5 -1 -5 -18z"/>
<path d="M1052 1045 c0 -16 2 -22 5 -12 2 9 2 23 0 30 -3 6 -5 -1 -5 -18z"/>
<path d="M3475 3810 c3 -5 8 -10 11 -10 2 0 4 5 4 10 0 6 -5 10 -11 10 -5 0
-7 -4 -4 -10z"/>
<path d="M3456 3726 c3 -9 13 -16 22 -16 8 0 13 1 11 3 -2 1 -12 9 -22 16 -15
12 -17 12 -11 -3z"/>
<path d="M4920 2581 c0 -6 5 -13 10 -16 6 -3 10 1 10 9 0 9 -4 16 -10 16 -5 0
-10 -4 -10 -9z"/>
<path d="M4883 2529 c-7 -7 -13 -18 -13 -25 0 -7 -6 -15 -12 -17 -7 -3 -8 -6
-2 -6 19 -2 46 25 43 43 -3 14 -6 15 -16 5z"/>
<path d="M1861 1374 c0 -11 3 -14 6 -6 3 7 2 16 -1 19 -3 4 -6 -2 -5 -13z"/>
<path d="M1290 5047 c0 -41 -9 -119 -20 -172 -20 -99 -26 -185 -12 -185 4 0
18 51 30 113 24 117 31 300 12 312 -6 4 -10 -21 -10 -68z"/>
<path d="M1500 240 c0 -5 5 -10 10 -10 6 0 10 5 10 10 0 6 -4 10 -10 10 -5 0
-10 -4 -10 -10z"/>
</g>
</svg>
